<?xml version="1.0" encoding="utf-8"?>
<!-- Generator: Adobe Illustrator 23.0.1, SVG Export Plug-In . SVG Version: 6.00 Build 0)  -->
<svg version="1.1" id="Layer_1" xmlns="http://www.w3.org/2000/svg" xmlns:xlink="http://www.w3.org/1999/xlink" x="0px" y="0px"
	 viewBox="0 0 1156 509.5" style="enable-background:new 0 0 1156 509.5;" xml:space="preserve">
<style type="text/css">
	.st0{fill:#3FA9F5;}
</style>
<path class="st0" d="M312.6,4.7c-48.1-10.6-96.3-2.3-139.6,13l206,129l-29-125C336.2,16,327.7,8,312.6,4.7z M383,38.7l39.9,226.6
	L486,148.7C458,96.7,437.8,62.3,383,38.7z M157,26.7C100.2,51.2,52.5,88.9,25.6,146.9L265,102.7L157,26.7z M142,159.7l-123.2,3.2
	c-4.5,11.9-8.3,24.2-11.1,37C-2.9,248.4-3.5,283.1,12,326.7L142,159.7z M95,253.7L23.6,358.1c24.2,54.8,66.7,93.8,122.4,120.6
	L95,253.7z M480,359.7l-229,63l112,62C419.3,460.9,452.5,416.3,480,359.7z M138.8,359.4l23.4,132.9c13,5.2,26.6,9.4,40.7,12.5
	c47.9,10.5,88,1.9,131.1-13.1L138.8,359.4z"/>
<g>
	<path class="st0" d="M508.2,264.5h-26.9l-5.9,13.8h-24.2l42.1-83.6h25.9l15.5,83.6h-24.8L508.2,264.5z M506.1,246.4l-3.7-30
		l-13.2,30C489.3,246.4,506.1,246.4,506.1,246.4z"/>
	<path class="st0" d="M563.2,194.7h39.4c8.6,0,14.7,2.2,18.2,6.7c3.6,4.4,4.7,10.8,3.4,19c-1.3,8.4-4.7,15-10.1,19.8
		c-5.4,4.8-12.9,7.1-22.5,7.1h-13l-4.9,31h-23.8L563.2,194.7z M581.3,230.3h5.8c4.6,0,7.9-0.9,10-2.6c2.1-1.7,3.4-3.9,3.8-6.6
		c0.4-2.6,0-4.8-1.3-6.7c-1.3-1.8-4.2-2.7-8.6-2.7h-6.8L581.3,230.3z"/>
	<path class="st0" d="M645.9,194.7h63.5l-2.8,17.8h-39.8l-2.1,13.3h36.9l-2.7,17H662l-2.6,16.5h40.9l-3,18.9h-64.7L645.9,194.7z"/>
	<path class="st0" d="M718,278.3l13.3-83.6h39.5c7.3,0,12.8,0.7,16.5,2c3.7,1.4,6.4,3.9,8.2,7.6c1.8,3.7,2.2,8.2,1.4,13.5
		c-0.7,4.6-2.3,8.6-4.6,12c-2.4,3.4-5.3,6.1-8.8,8.2c-2.2,1.3-5.2,2.4-8.8,3.3c2.7,1,4.6,2.1,5.7,3.1c0.8,0.7,1.8,2.1,3.1,4.4
		c1.3,2.2,2.1,4,2.5,5.2l7.6,24.2h-26.8l-8.6-25.5c-1.1-3.3-2.2-5.4-3.3-6.4c-1.5-1.3-3.3-1.9-5.5-1.9h-2.1l-5.4,33.9H718z
		 M749.8,228.6h10c1.1,0,3.2-0.4,6.5-1.1c1.6-0.3,3-1.2,4.3-2.6c1.2-1.4,2-3,2.3-4.8c0.4-2.7,0-4.8-1.4-6.2
		c-1.3-1.4-4.2-2.2-8.5-2.2h-10.4L749.8,228.6z"/>
	<path class="st0" d="M816.4,194.7h72.1l-3.3,20.6H861l-10,62.9h-23.7l10-62.9h-24.2L816.4,194.7z"/>
	<path class="st0" d="M955.2,194.7h23.7l-7.9,49.8c-0.8,4.9-2.2,9.6-4.3,14c-2.1,4.4-4.9,8.2-8.5,11.5c-3.5,3.3-7.1,5.6-10.6,6.9
		c-4.9,1.9-10.6,2.8-17,2.8c-3.7,0-7.8-0.3-12.1-0.9c-4.3-0.6-7.8-1.7-10.5-3.4c-2.7-1.7-5-4.1-7-7.2c-2-3.1-3.1-6.3-3.5-9.6
		c-0.6-5.3-0.6-10,0.1-14.1l7.9-49.8h23.7l-8.1,51c-0.7,4.6-0.1,8.1,1.8,10.7c1.9,2.6,4.9,3.8,9,3.8c4.1,0,7.5-1.3,10.2-3.8
		c2.7-2.5,4.5-6.1,5.2-10.7L955.2,194.7z"/>
	<path class="st0" d="M988.3,278.3l13.3-83.6h39.5c7.3,0,12.8,0.7,16.5,2c3.7,1.4,6.4,3.9,8.2,7.6c1.8,3.7,2.3,8.2,1.4,13.5
		c-0.7,4.6-2.3,8.6-4.6,12c-2.4,3.4-5.3,6.1-8.8,8.2c-2.2,1.3-5.2,2.4-8.9,3.3c2.7,1,4.6,2.1,5.7,3.1c0.8,0.7,1.8,2.1,3.1,4.4
		c1.3,2.2,2.1,4,2.5,5.2l7.6,24.2H1037l-8.6-25.5c-1.1-3.3-2.2-5.4-3.3-6.4c-1.5-1.3-3.3-1.9-5.5-1.9h-2.1l-5.4,33.9H988.3z
		 M1020.1,228.6h10c1.1,0,3.2-0.4,6.5-1.1c1.6-0.3,3-1.2,4.3-2.6c1.2-1.4,2-3,2.3-4.8c0.4-2.7,0-4.8-1.4-6.2
		c-1.3-1.4-4.2-2.2-8.5-2.2h-10.4L1020.1,228.6z"/>
	<path class="st0" d="M1092.5,194.7h63.5l-2.8,17.8h-39.8l-2.1,13.3h36.9l-2.7,17h-36.9l-2.6,16.5h40.9l-3,18.9h-64.7L1092.5,194.7z
		"/>
</g>
<g>
	<path class="st0" d="M506.1,352v-38.4h5.1v33.9h19v4.5H506.1L506.1,352z"/>
	<path class="st0" d="M553,352l14.8-38.4h5.5L589,352h-5.8l-4.5-11.6h-16.1l-4.2,11.6H553L553,352z M564.1,336.3h13.1l-4-10.6
		c-1.2-3.2-2.1-5.9-2.7-8c-0.5,2.5-1.2,4.9-2.1,7.3L564.1,336.3z"/>
	<path class="st0" d="M613.9,352v-38.4h14.5c2.9,0,5.3,0.4,7.1,1.2c1.8,0.8,3.2,2,4.2,3.6c1,1.6,1.5,3.3,1.5,5.1
		c0,1.6-0.4,3.2-1.3,4.6c-0.9,1.4-2.2,2.6-4,3.5c2.3,0.7,4.1,1.8,5.4,3.5c1.3,1.6,1.9,3.6,1.9,5.8c0,1.8-0.4,3.5-1.1,5
		c-0.8,1.5-1.7,2.7-2.8,3.6c-1.1,0.8-2.5,1.5-4.2,1.9c-1.7,0.4-3.8,0.6-6.2,0.6H613.9z M619,329.8h8.3c2.3,0,3.9-0.1,4.9-0.4
		c1.3-0.4,2.3-1,2.9-1.9c0.7-0.9,1-2,1-3.4c0-1.3-0.3-2.4-0.9-3.4c-0.6-1-1.5-1.6-2.6-2c-1.1-0.4-3.1-0.5-5.9-0.5H619V329.8
		L619,329.8z M619,347.5h9.6c1.6,0,2.8-0.1,3.5-0.2c1.2-0.2,2.2-0.6,2.9-1c0.8-0.5,1.4-1.2,1.9-2.1c0.5-0.9,0.8-2,0.8-3.2
		c0-1.4-0.4-2.7-1.1-3.7c-0.7-1.1-1.8-1.8-3.1-2.2c-1.3-0.4-3.2-0.6-5.6-0.6H619L619,347.5L619,347.5z"/>
	<path class="st0" d="M669.4,333.4c0-6.4,1.7-11.4,5.2-15c3.4-3.6,7.9-5.4,13.3-5.4c3.6,0,6.8,0.8,9.6,2.5c2.9,1.7,5,4.1,6.5,7.1
		c1.5,3,2.2,6.5,2.2,10.3c0,3.9-0.8,7.4-2.4,10.4c-1.6,3.1-3.8,5.4-6.7,7c-2.9,1.6-6,2.4-9.4,2.4c-3.6,0-6.9-0.9-9.7-2.6
		c-2.9-1.7-5-4.1-6.5-7.1C670.2,339.9,669.4,336.7,669.4,333.4z M674.7,333.4c0,4.6,1.2,8.3,3.7,10.9c2.5,2.7,5.6,4,9.4,4
		c3.8,0,7-1.3,9.5-4c2.5-2.7,3.7-6.5,3.7-11.4c0-3.1-0.5-5.9-1.6-8.2c-1.1-2.3-2.6-4.1-4.7-5.4c-2-1.3-4.3-1.9-6.9-1.9
		c-3.6,0-6.7,1.2-9.3,3.7C676,323.5,674.7,327.7,674.7,333.4z"/>
	<path class="st0" d="M733.9,352v-38.4H751c3.4,0,6,0.3,7.8,1c1.8,0.7,3.2,1.9,4.3,3.7c1.1,1.7,1.6,3.7,1.6,5.8c0,2.7-0.9,5-2.7,6.9
		c-1.8,1.9-4.5,3.1-8.2,3.6c1.3,0.6,2.4,1.3,3.1,1.9c1.5,1.4,2.9,3.1,4.2,5.1l6.7,10.4h-6.4l-5.1-8c-1.5-2.3-2.7-4.1-3.7-5.3
		c-1-1.2-1.8-2.1-2.6-2.6c-0.8-0.5-1.5-0.8-2.3-1c-0.6-0.1-1.5-0.2-2.8-0.2H739v17L733.9,352L733.9,352z M739,330.6h11
		c2.3,0,4.2-0.2,5.5-0.7c1.3-0.5,2.3-1.2,3-2.3c0.7-1.1,1-2.2,1-3.4c0-1.8-0.7-3.3-2-4.5c-1.3-1.2-3.4-1.8-6.3-1.8H739V330.6z"/>
	<path class="st0" d="M789.5,352l14.8-38.4h5.5l15.8,38.4h-5.8l-4.5-11.6h-16.1l-4.2,11.6H789.5L789.5,352z M800.6,336.3h13.1
		l-4-10.6c-1.2-3.2-2.1-5.9-2.7-8c-0.5,2.5-1.2,4.9-2.1,7.3L800.6,336.3z"/>
	<path class="st0" d="M856.4,352v-33.9h-12.7v-4.5h30.5v4.5h-12.7V352H856.4z"/>
	<path class="st0" d="M898,333.4c0-6.4,1.7-11.4,5.2-15s7.9-5.4,13.3-5.4c3.6,0,6.8,0.8,9.6,2.5c2.9,1.7,5,4.1,6.5,7.1
		c1.5,3,2.2,6.5,2.2,10.3c0,3.9-0.8,7.4-2.4,10.4c-1.6,3.1-3.8,5.4-6.7,7c-2.9,1.6-6,2.4-9.4,2.4c-3.6,0-6.9-0.9-9.7-2.6
		c-2.9-1.7-5-4.1-6.5-7.1C898.7,339.9,898,336.7,898,333.4z M903.2,333.4c0,4.6,1.2,8.3,3.7,10.9c2.5,2.7,5.6,4,9.4,4
		c3.8,0,7-1.3,9.5-4c2.5-2.7,3.7-6.5,3.7-11.4c0-3.1-0.5-5.9-1.6-8.2c-1.1-2.3-2.6-4.1-4.7-5.4c-2-1.3-4.3-1.9-6.9-1.9
		c-3.6,0-6.7,1.2-9.3,3.7C904.5,323.5,903.2,327.7,903.2,333.4z"/>
	<path class="st0" d="M962.4,352v-38.4h17.1c3.4,0,6,0.3,7.8,1c1.8,0.7,3.2,1.9,4.3,3.7c1.1,1.7,1.6,3.7,1.6,5.8
		c0,2.7-0.9,5-2.7,6.9c-1.8,1.9-4.5,3.1-8.2,3.6c1.3,0.6,2.4,1.3,3.1,1.9c1.5,1.4,2.9,3.1,4.2,5.1l6.7,10.4H990l-5.1-8
		c-1.5-2.3-2.7-4.1-3.7-5.3c-1-1.2-1.8-2.1-2.6-2.6c-0.8-0.5-1.5-0.8-2.3-1c-0.6-0.1-1.5-0.2-2.8-0.2h-5.9v17L962.4,352L962.4,352z
		 M967.5,330.6h11c2.3,0,4.2-0.2,5.5-0.7c1.3-0.5,2.3-1.2,3-2.3c0.7-1.1,1-2.2,1-3.4c0-1.8-0.7-3.3-2-4.5c-1.3-1.2-3.4-1.8-6.3-1.8
		h-12.2L967.5,330.6L967.5,330.6z"/>
	<path class="st0" d="M1023.1,352v-38.4h5.1V352H1023.1L1023.1,352z"/>
	<path class="st0" d="M1058.3,352v-38.4h27.9v4.5h-22.8v11.8h21.3v4.5h-21.3v13.1h23.7v4.5H1058.3L1058.3,352z"/>
	<path class="st0" d="M1113.3,339.7l4.8-0.4c0.2,1.9,0.8,3.5,1.6,4.7c0.8,1.2,2.1,2.2,3.9,3c1.8,0.8,3.7,1.1,5.9,1.1
		c1.9,0,3.7-0.3,5.2-0.9c1.5-0.6,2.6-1.4,3.3-2.4c0.7-1,1.1-2.1,1.1-3.3c0-1.2-0.3-2.3-1.1-3.2c-0.7-0.9-1.9-1.7-3.5-2.3
		c-1-0.4-3.3-1-6.9-1.9c-3.5-0.8-6-1.6-7.4-2.4c-1.8-1-3.2-2.2-4.1-3.6c-0.9-1.4-1.4-3-1.4-4.8c0-1.9,0.6-3.7,1.7-5.4
		c1.1-1.7,2.7-3,4.8-3.8c2.1-0.9,4.5-1.3,7.1-1.3c2.9,0,5.4,0.5,7.6,1.4c2.2,0.9,3.9,2.3,5,4c1.2,1.8,1.8,3.8,1.9,6l-4.9,0.4
		c-0.3-2.4-1.2-4.3-2.7-5.5c-1.5-1.2-3.8-1.9-6.7-1.9c-3.1,0-5.3,0.6-6.7,1.7c-1.4,1.1-2.1,2.5-2.1,4.1c0,1.4,0.5,2.5,1.5,3.4
		c1,0.9,3.5,1.8,7.7,2.7c4.1,0.9,7,1.7,8.5,2.5c2.2,1,3.9,2.3,5,3.9c1.1,1.6,1.6,3.4,1.6,5.5c0,2-0.6,4-1.8,5.8
		c-1.2,1.8-2.9,3.2-5.1,4.2c-2.2,1-4.7,1.5-7.4,1.5c-3.5,0-6.4-0.5-8.8-1.5c-2.4-1-4.2-2.5-5.5-4.6
		C1114.1,344.6,1113.4,342.3,1113.3,339.7z"/>
</g>
</svg>
