<?xml version="1.0" encoding="utf-8"?>
<!-- Generator: Adobe Illustrator 23.0.1, SVG Export Plug-In . SVG Version: 6.00 Build 0)  -->
<svg version="1.1" id="Calque_1" xmlns="http://www.w3.org/2000/svg" xmlns:xlink="http://www.w3.org/1999/xlink" x="0px" y="0px"
	 viewBox="0 0 531 531" style="enable-background:new 0 0 531 531;" xml:space="preserve">
<style type="text/css">
	.st0{fill:#3FA9F5;}
</style>
<path class="st0" d="M315.5,15.5c-48.1-10.6-96.3-2.3-139.6,13l206,129l-29-125C339.1,26.8,330.5,18.8,315.5,15.5z M385.8,49.5
	L425.8,276l63.1-116.6C460.8,107.5,440.6,73.1,385.8,49.5z M159.8,37.5C103,62,55.3,99.6,28.4,157.6l239.4-44.2L159.8,37.5z
	 M496.8,194.5L362.6,388l139.2-38.6c5.4-13.3,5.6-14.5,8.8-29l1.2-5.6C520.7,269.6,510.5,235.2,496.8,194.5z M144.8,170.5
	l-123.2,3.2c-4.5,11.9-8.3,24.2-11.1,37c-10.6,48.5-11.2,83.2,4.3,126.8L144.8,170.5z M97.8,264.5L26.4,368.8
	c24.2,54.8,66.7,93.8,122.4,120.6L97.8,264.5z M482.8,370.5l-229,63l112,62C422.1,471.7,455.4,427.1,482.8,370.5z M141.6,370.2
	l23.4,132.9c13,5.2,26.6,9.4,40.7,12.5c47.9,10.5,88,1.9,131.1-13.1L141.6,370.2z"/>
</svg>
