<?xml version="1.0" encoding="utf-8"?>
<!-- Generator: Adobe Illustrator 23.0.1, SVG Export Plug-In . SVG Version: 6.00 Build 0)  -->
<svg version="1.1" id="Layer_1" xmlns="http://www.w3.org/2000/svg" xmlns:xlink="http://www.w3.org/1999/xlink" x="0px" y="0px"
	 viewBox="0 0 704.9 158" style="enable-background:new 0 0 704.9 158;" xml:space="preserve">
<style type="text/css">
	.st0{fill:#3FA9F5;}
</style>
<g>
	<path class="st0" d="M57,69.8H30.1l-5.9,13.8H0L42.1,0H68l15.5,83.6H58.7L57,69.8z M55,51.7l-3.7-30l-13.2,30
		C38.2,51.7,55,51.7,55,51.7z"/>
	<path class="st0" d="M112.1,0h39.4c8.6,0,14.7,2.2,18.2,6.7c3.6,4.4,4.7,10.8,3.4,19c-1.3,8.4-4.7,15-10.1,19.8
		c-5.4,4.8-12.9,7.1-22.5,7.1h-13l-4.9,31H98.8L112.1,0z M130.2,35.6h5.8c4.6,0,7.9-0.9,10-2.6c2.1-1.7,3.4-3.9,3.8-6.6
		c0.4-2.6,0-4.8-1.3-6.7c-1.3-1.8-4.2-2.7-8.6-2.7h-6.8L130.2,35.6z"/>
	<path class="st0" d="M194.8,0h63.5l-2.8,17.8h-39.8l-2.1,13.3h36.9l-2.7,17h-36.9l-2.6,16.5h40.9l-3,18.9h-64.7L194.8,0z"/>
	<path class="st0" d="M266.9,83.6L280.2,0h39.5c7.3,0,12.8,0.7,16.5,2c3.7,1.4,6.4,3.9,8.2,7.6c1.8,3.7,2.2,8.2,1.4,13.5
		c-0.7,4.6-2.3,8.6-4.6,12c-2.4,3.4-5.3,6.1-8.8,8.2c-2.2,1.3-5.2,2.4-8.8,3.3c2.7,1,4.6,2.1,5.7,3.1c0.8,0.7,1.8,2.1,3.1,4.4
		c1.3,2.2,2.1,4,2.5,5.2l7.6,24.2h-26.8L307,58c-1.1-3.3-2.2-5.4-3.3-6.4c-1.5-1.3-3.3-1.9-5.5-1.9h-2.1l-5.4,33.9H266.9z
		 M298.7,33.9h10c1.1,0,3.2-0.4,6.5-1.1c1.6-0.3,3-1.2,4.3-2.6c1.2-1.4,2-3,2.3-4.8c0.4-2.7,0-4.8-1.4-6.2c-1.3-1.4-4.2-2.2-8.5-2.2
		h-10.4L298.7,33.9z"/>
	<path class="st0" d="M365.3,0h72.1L434,20.6h-24.2l-10,62.9h-23.7l10-62.9H362L365.3,0z"/>
	<path class="st0" d="M504.1,0h23.7l-7.9,49.8c-0.8,4.9-2.2,9.6-4.3,14c-2.1,4.4-4.9,8.2-8.5,11.5c-3.5,3.3-7.1,5.6-10.6,6.9
		c-4.9,1.9-10.6,2.8-17,2.8c-3.7,0-7.8-0.3-12.1-0.9c-4.3-0.6-7.8-1.7-10.5-3.4c-2.7-1.7-5-4.1-7-7.2c-2-3.1-3.1-6.3-3.5-9.6
		c-0.6-5.3-0.6-10,0.1-14.1L454.2,0h23.7l-8.1,51c-0.7,4.6-0.1,8.1,1.8,10.7c1.9,2.6,4.9,3.8,9,3.8c4.1,0,7.5-1.3,10.2-3.8
		c2.7-2.5,4.5-6.1,5.2-10.7L504.1,0z"/>
	<path class="st0" d="M537.2,83.6L550.5,0H590c7.3,0,12.8,0.7,16.5,2c3.7,1.4,6.4,3.9,8.2,7.6c1.8,3.7,2.3,8.2,1.4,13.5
		c-0.7,4.6-2.3,8.6-4.6,12c-2.4,3.4-5.3,6.1-8.8,8.2c-2.2,1.3-5.2,2.4-8.9,3.3c2.7,1,4.6,2.1,5.7,3.1c0.8,0.7,1.8,2.1,3.1,4.4
		c1.3,2.2,2.1,4,2.5,5.2l7.6,24.2h-26.8L577.3,58c-1.1-3.3-2.2-5.4-3.3-6.4c-1.5-1.3-3.3-1.9-5.5-1.9h-2.1L561,83.6H537.2z
		 M569,33.9h10c1.1,0,3.2-0.4,6.5-1.1c1.6-0.3,3-1.2,4.3-2.6c1.2-1.4,2-3,2.3-4.8c0.4-2.7,0-4.8-1.4-6.2c-1.3-1.4-4.2-2.2-8.5-2.2
		h-10.4L569,33.9z"/>
	<path class="st0" d="M641.4,0h63.5L702,17.8h-39.8l-2.1,13.3h36.9l-2.7,17h-36.9l-2.6,16.5h40.9l-3,18.9H628L641.4,0z"/>
</g>
<g>
	<path class="st0" d="M55,157.3V119h5.1v33.9h19v4.5L55,157.3L55,157.3z"/>
	<path class="st0" d="M101.9,157.3l14.8-38.4h5.5l15.8,38.4h-5.8l-4.5-11.6h-16.1l-4.2,11.6L101.9,157.3L101.9,157.3z M113,141.6
		h13.1l-4-10.6c-1.2-3.2-2.1-5.9-2.7-8c-0.5,2.5-1.2,4.9-2.1,7.3L113,141.6z"/>
	<path class="st0" d="M162.8,157.3V119h14.5c2.9,0,5.3,0.4,7.1,1.2c1.8,0.8,3.2,2,4.2,3.6c1,1.6,1.5,3.3,1.5,5.1
		c0,1.6-0.4,3.2-1.3,4.6c-0.9,1.4-2.2,2.6-4,3.5c2.3,0.7,4.1,1.8,5.4,3.5c1.3,1.6,1.9,3.6,1.9,5.8c0,1.8-0.4,3.5-1.1,5
		c-0.8,1.5-1.7,2.7-2.8,3.6c-1.1,0.8-2.5,1.5-4.2,1.9c-1.7,0.4-3.8,0.6-6.2,0.6H162.8z M167.9,135.1h8.3c2.3,0,3.9-0.1,4.9-0.4
		c1.3-0.4,2.3-1,2.9-1.9c0.7-0.9,1-2,1-3.4c0-1.3-0.3-2.4-0.9-3.4c-0.6-1-1.5-1.6-2.6-2c-1.1-0.4-3.1-0.5-5.9-0.5h-7.7L167.9,135.1
		L167.9,135.1z M167.9,152.8h9.6c1.6,0,2.8-0.1,3.5-0.2c1.2-0.2,2.2-0.6,2.9-1c0.8-0.5,1.4-1.2,1.9-2.1c0.5-0.9,0.8-2,0.8-3.2
		c0-1.4-0.4-2.7-1.1-3.7c-0.7-1.1-1.8-1.8-3.1-2.2c-1.3-0.4-3.2-0.6-5.6-0.6h-8.9L167.9,152.8L167.9,152.8z"/>
	<path class="st0" d="M218.3,138.6c0-6.4,1.7-11.4,5.2-15c3.4-3.6,7.9-5.4,13.3-5.4c3.6,0,6.8,0.8,9.6,2.5c2.9,1.7,5,4.1,6.5,7.1
		c1.5,3,2.2,6.5,2.2,10.3c0,3.9-0.8,7.4-2.4,10.4c-1.6,3.1-3.8,5.4-6.7,7c-2.9,1.6-6,2.4-9.4,2.4c-3.6,0-6.9-0.9-9.7-2.6
		c-2.9-1.7-5-4.1-6.5-7.1C219.1,145.2,218.3,142,218.3,138.6z M223.6,138.7c0,4.6,1.2,8.3,3.7,10.9c2.5,2.7,5.6,4,9.4,4
		c3.8,0,7-1.3,9.5-4c2.5-2.7,3.7-6.5,3.7-11.4c0-3.1-0.5-5.9-1.6-8.2c-1.1-2.3-2.6-4.1-4.7-5.4c-2-1.3-4.3-1.9-6.9-1.9
		c-3.6,0-6.7,1.2-9.3,3.7C224.9,128.8,223.6,133,223.6,138.7z"/>
	<path class="st0" d="M282.8,157.3V119h17.1c3.4,0,6,0.3,7.8,1c1.8,0.7,3.2,1.9,4.3,3.7s1.6,3.7,1.6,5.8c0,2.7-0.9,5-2.7,6.9
		c-1.8,1.9-4.5,3.1-8.2,3.6c1.3,0.6,2.4,1.3,3.1,1.9c1.5,1.4,2.9,3.1,4.2,5.1l6.7,10.4h-6.4l-5.1-8c-1.5-2.3-2.7-4.1-3.7-5.3
		c-1-1.2-1.8-2.1-2.6-2.6c-0.8-0.5-1.5-0.8-2.3-1c-0.6-0.1-1.5-0.2-2.8-0.2h-5.9v17L282.8,157.3L282.8,157.3z M287.9,135.9h11
		c2.3,0,4.2-0.2,5.5-0.7c1.3-0.5,2.3-1.2,3-2.3c0.7-1.1,1-2.2,1-3.4c0-1.8-0.7-3.3-2-4.5c-1.3-1.2-3.4-1.8-6.3-1.8h-12.2V135.9z"/>
	<path class="st0" d="M338.4,157.3l14.8-38.4h5.5l15.8,38.4h-5.8l-4.5-11.6H348l-4.2,11.6L338.4,157.3L338.4,157.3z M349.5,141.6
		h13.1l-4-10.6c-1.2-3.2-2.1-5.9-2.7-8c-0.5,2.5-1.2,4.9-2.1,7.3L349.5,141.6z"/>
	<path class="st0" d="M405.3,157.3v-33.9h-12.7V119h30.5v4.5h-12.7v33.9H405.3z"/>
	<path class="st0" d="M446.8,138.6c0-6.4,1.7-11.4,5.2-15c3.4-3.6,7.9-5.4,13.3-5.4c3.6,0,6.8,0.8,9.6,2.5c2.9,1.7,5,4.1,6.5,7.1
		c1.5,3,2.2,6.5,2.2,10.3c0,3.9-0.8,7.4-2.4,10.4c-1.6,3.1-3.8,5.4-6.7,7c-2.9,1.6-6,2.4-9.4,2.4c-3.6,0-6.9-0.9-9.7-2.6
		c-2.9-1.7-5-4.1-6.5-7.1C447.6,145.2,446.8,142,446.8,138.6z M452.1,138.7c0,4.6,1.2,8.3,3.7,10.9c2.5,2.7,5.6,4,9.4,4
		c3.8,0,7-1.3,9.5-4c2.5-2.7,3.7-6.5,3.7-11.4c0-3.1-0.5-5.9-1.6-8.2c-1.1-2.3-2.6-4.1-4.7-5.4c-2-1.3-4.3-1.9-6.9-1.9
		c-3.6,0-6.7,1.2-9.3,3.7C453.4,128.8,452.1,133,452.1,138.7z"/>
	<path class="st0" d="M511.3,157.3V119h17.1c3.4,0,6,0.3,7.8,1c1.8,0.7,3.2,1.9,4.3,3.7c1.1,1.7,1.6,3.7,1.6,5.8
		c0,2.7-0.9,5-2.7,6.9c-1.8,1.9-4.5,3.1-8.2,3.6c1.3,0.6,2.4,1.3,3.1,1.9c1.5,1.4,2.9,3.1,4.2,5.1l6.7,10.4h-6.4l-5.1-8
		c-1.5-2.3-2.7-4.1-3.7-5.3c-1-1.2-1.8-2.1-2.6-2.6c-0.8-0.5-1.5-0.8-2.3-1c-0.6-0.1-1.5-0.2-2.8-0.2h-5.9v17L511.3,157.3
		L511.3,157.3z M516.4,135.9h11c2.3,0,4.2-0.2,5.5-0.7c1.3-0.5,2.3-1.2,3-2.3c0.7-1.1,1-2.2,1-3.4c0-1.8-0.7-3.3-2-4.5
		c-1.3-1.2-3.4-1.8-6.3-1.8h-12.2L516.4,135.9L516.4,135.9z"/>
	<path class="st0" d="M572,157.3V119h5.1v38.4L572,157.3L572,157.3z"/>
	<path class="st0" d="M607.2,157.3V119H635v4.5h-22.8v11.8h21.3v4.5h-21.3v13.1h23.7v4.5L607.2,157.3L607.2,157.3z"/>
	<path class="st0" d="M662.2,145l4.8-0.4c0.2,1.9,0.8,3.5,1.6,4.7c0.8,1.2,2.1,2.2,3.9,3c1.8,0.8,3.7,1.1,5.9,1.1
		c1.9,0,3.7-0.3,5.2-0.9c1.5-0.6,2.6-1.4,3.3-2.4c0.7-1,1.1-2.1,1.1-3.3c0-1.2-0.3-2.3-1.1-3.2c-0.7-0.9-1.9-1.7-3.5-2.3
		c-1-0.4-3.3-1-6.9-1.9c-3.5-0.8-6-1.6-7.4-2.4c-1.8-1-3.2-2.2-4.1-3.6c-0.9-1.4-1.4-3-1.4-4.8c0-1.9,0.6-3.7,1.7-5.4
		c1.1-1.7,2.7-3,4.8-3.8c2.1-0.9,4.5-1.3,7.1-1.3c2.9,0,5.4,0.5,7.6,1.4c2.2,0.9,3.9,2.3,5,4c1.2,1.8,1.8,3.8,1.9,6l-4.9,0.4
		c-0.3-2.4-1.2-4.3-2.7-5.5c-1.5-1.2-3.8-1.9-6.7-1.9c-3.1,0-5.3,0.6-6.7,1.7c-1.4,1.1-2.1,2.5-2.1,4.1c0,1.4,0.5,2.5,1.5,3.4
		c1,0.9,3.5,1.8,7.7,2.7c4.1,0.9,7,1.7,8.5,2.5c2.2,1,3.9,2.3,5,3.9c1.1,1.6,1.6,3.4,1.6,5.5c0,2-0.6,4-1.8,5.8
		c-1.2,1.8-2.9,3.2-5.1,4.2c-2.2,1-4.7,1.5-7.4,1.5c-3.5,0-6.4-0.5-8.8-1.5c-2.4-1-4.2-2.5-5.5-4.6C663,149.9,662.3,147.6,662.2,145
		z"/>
</g>
</svg>
